<?xml version="1.0" encoding="UTF-8" standalone="no" ?>
<!DOCTYPE svg PUBLIC "-//W3C//DTD SVG 1.1//EN" "http://www.w3.org/Graphics/SVG/1.1/DTD/svg11.dtd">
<svg xmlns="http://www.w3.org/2000/svg" xmlns:xlink="http://www.w3.org/1999/xlink" version="1.1" width="1080" height="1080" viewBox="0 0 1080 1080" xml:space="preserve">
<desc>Created with Fabric.js 5.2.4</desc>
<defs>
</defs>
<g transform="matrix(1 0 0 1 540 540)" id="ed35c647-007c-4582-baff-1c5fc70749a5"  >
<rect style="stroke: none; stroke-width: 1; stroke-dasharray: none; stroke-linecap: butt; stroke-dashoffset: 0; stroke-linejoin: miter; stroke-miterlimit: 4; fill: rgb(255,255,255); fill-rule: nonzero; opacity: 1; visibility: hidden;" vector-effect="non-scaling-stroke"  x="-540" y="-540" rx="0" ry="0" width="1080" height="1080" />
</g>
<g transform="matrix(1 0 0 1 540 540)" id="912a561a-7136-4eec-95f8-e46514a38693"  >
</g>
<g transform="matrix(1 0 0 1 540 540)" id="5e8fb975-6a87-498c-998d-c4b6cfa26d1a"  >
<path style="stroke: rgb(0,0,0); stroke-width: 0; stroke-dasharray: none; stroke-linecap: butt; stroke-dashoffset: 0; stroke-linejoin: miter; stroke-miterlimit: 4; fill: rgb(0,0,0); fill-rule: nonzero; opacity: 1;" vector-effect="non-scaling-stroke"  transform=" translate(-316, -292)" d="M 592 1.5 C 602.631 1.5 612.256 5.81 619.224 12.776 C 626.19 19.744 630.5 29.37 630.5 40 L 630.5 544 C 630.5 554.631 626.19 564.256 619.224 571.224 C 612.256 578.19 602.63 582.5 592 582.5 L 40 582.5 C 29.369 582.5 19.744 578.19 12.776 571.224 C 5.81 564.256 1.5 554.63 1.5 544 L 1.5 40 C 1.5 29.369 5.81 19.744 12.776 12.776 C 19.744 5.81 29.37 1.5 40 1.5 L 592 1.5 Z M 580 458.5 C 570.75 458.5 562.374 462.25 556.312 468.312 C 550.25 474.374 546.5 482.749 546.5 492 C 546.5 501.25 550.25 509.626 556.312 515.688 C 562.374 521.75 570.749 525.5 580 525.5 C 589.25 525.5 597.626 521.75 603.688 515.688 C 609.75 509.626 613.5 501.251 613.5 492 C 613.5 482.75 609.75 474.374 603.688 468.312 C 597.626 462.25 589.251 458.5 580 458.5 Z M 492 458.5 C 482.75 458.5 474.374 462.25 468.312 468.312 C 462.25 474.374 458.5 482.749 458.5 492 C 458.5 501.25 462.25 509.626 468.312 515.688 C 474.374 521.75 482.749 525.5 492 525.5 C 501.25 525.5 509.626 521.75 515.688 515.688 C 521.75 509.626 525.5 501.251 525.5 492 C 525.5 482.75 521.75 474.374 515.688 468.312 C 509.626 462.25 501.251 458.5 492 458.5 Z M 404 458.5 C 394.75 458.5 386.374 462.25 380.312 468.312 C 374.25 474.374 370.5 482.749 370.5 492 C 370.5 501.25 374.25 509.626 380.312 515.688 C 386.374 521.75 394.749 525.5 404 525.5 C 413.25 525.5 421.626 521.75 427.688 515.688 C 433.75 509.626 437.5 501.251 437.5 492 C 437.5 482.75 433.75 474.374 427.688 468.312 C 421.626 462.25 413.251 458.5 404 458.5 Z M 228 458.5 C 218.75 458.5 210.374 462.25 204.312 468.312 C 198.25 474.374 194.5 482.749 194.5 492 C 194.5 501.25 198.25 509.626 204.312 515.688 C 210.37400000000002 521.75 218.74900000000002 525.5 228 525.5 C 237.25 525.5 245.626 521.75 251.688 515.688 C 257.75 509.626 261.5 501.251 261.5 492 C 261.5 482.75 257.75 474.374 251.688 468.312 C 245.62599999999998 462.25 237.25099999999998 458.5 228 458.5 Z M 316 458.5 C 306.75 458.5 298.374 462.25 292.312 468.312 C 286.25 474.374 282.5 482.749 282.5 492 C 282.5 501.25 286.25 509.626 292.312 515.688 C 298.374 521.75 306.749 525.5 316 525.5 C 325.25 525.5 333.626 521.75 339.688 515.688 C 345.75 509.626 349.5 501.251 349.5 492 C 349.5 482.75 345.75 474.374 339.688 468.312 C 333.626 462.25 325.251 458.5 316 458.5 Z M 140.006 458.5 C 130.753 458.498 122.376 462.248 116.312 468.312 C 110.25 474.374 106.5 482.749 106.5 492 C 106.5 501.25 110.25 509.626 116.312 515.688 C 122.374 521.75 130.749 525.5 140 525.5 C 149.25 525.5 157.626 521.75 163.688 515.688 C 169.75 509.626 173.5 501.251 173.5 492 C 173.5 482.85 169.831 474.556 163.88400000000001 468.51 C 157.92600000000002 462.452 149.681 458.65 140.54700000000003 458.504 Z M 52 458.5 C 42.75 458.5 34.373999999999995 462.25 28.312 468.312 C 22.25 474.374 18.5 482.749 18.5 492 C 18.5 501.25 22.25 509.626 28.311999999999998 515.688 C 34.374 521.75 42.749 525.5 52 525.5 C 61.25 525.5 69.626 521.75 75.688 515.688 C 81.75 509.626 85.5 501.251 85.5 492 C 85.5 482.75 81.75 474.374 75.688 468.312 C 69.626 462.25 61.251 458.5 52 458.5 Z M 580 370.5 C 570.75 370.5 562.374 374.25 556.312 380.312 C 550.25 386.374 546.5 394.749 546.5 404 C 546.5 413.25 550.25 421.626 556.312 427.688 C 562.374 433.75 570.749 437.5 580 437.5 C 589.25 437.5 597.626 433.75 603.688 427.688 C 609.75 421.626 613.5 413.251 613.5 404 C 613.5 394.75 609.75 386.374 603.688 380.312 C 597.626 374.25 589.251 370.5 580 370.5 Z M 492 370.5 C 482.75 370.5 474.374 374.25 468.312 380.312 C 462.25 386.374 458.5 394.749 458.5 404 C 458.5 413.25 462.25 421.626 468.312 427.688 C 474.374 433.75 482.749 437.5 492 437.5 C 501.25 437.5 509.626 433.75 515.688 427.688 C 521.75 421.626 525.5 413.251 525.5 404 C 525.5 394.75 521.75 386.374 515.688 380.312 C 509.626 374.25 501.251 370.5 492 370.5 Z M 404 370.5 C 394.75 370.5 386.374 374.25 380.312 380.312 C 374.25 386.374 370.5 394.749 370.5 404 C 370.5 413.25 374.25 421.626 380.312 427.688 C 386.374 433.75 394.749 437.5 404 437.5 C 413.25 437.5 421.626 433.75 427.688 427.688 C 433.75 421.626 437.5 413.251 437.5 404 C 437.5 394.75 433.75 386.374 427.688 380.312 C 421.626 374.25 413.251 370.5 404 370.5 Z M 316 370.5 C 306.75 370.5 298.374 374.25 292.312 380.312 C 286.25 386.374 282.5 394.749 282.5 404 C 282.5 413.25 286.25 421.626 292.312 427.688 C 298.374 433.75 306.749 437.5 316 437.5 C 325.25 437.5 333.626 433.75 339.688 427.688 C 345.75 421.626 349.5 413.251 349.5 404 C 349.5 394.75 345.75 386.374 339.688 380.312 C 333.626 374.25 325.251 370.5 316 370.5 Z M 228 370.5 C 218.75 370.5 210.374 374.25 204.312 380.312 C 198.25 386.374 194.5 394.749 194.5 404 C 194.5 413.25 198.25 421.626 204.312 427.688 C 210.37400000000002 433.75 218.74900000000002 437.5 228 437.5 C 237.25 437.5 245.626 433.75 251.688 427.688 C 257.75 421.626 261.5 413.251 261.5 404 C 261.5 394.75 257.75 386.374 251.688 380.312 C 245.62599999999998 374.25 237.25099999999998 370.5 228 370.5 Z M 140 370.5 C 130.75 370.5 122.374 374.25 116.312 380.312 C 110.25 386.374 106.5 394.749 106.5 404 C 106.5 413.25 110.25 421.626 116.312 427.688 C 122.374 433.75 130.749 437.5 140 437.5 C 149.25 437.5 157.626 433.75 163.688 427.688 C 169.75 421.626 173.5 413.251 173.5 404 C 173.5 394.75 169.75 386.374 163.688 380.312 C 157.62599999999998 374.25 149.25099999999998 370.5 140 370.5 Z M 52 370.5 C 42.75 370.5 34.373999999999995 374.25 28.312 380.312 C 22.25 386.374 18.5 394.749 18.5 404 C 18.5 413.25 22.25 421.626 28.311999999999998 427.688 C 34.374 433.75 42.749 437.5 52 437.5 C 61.25 437.5 69.626 433.75 75.688 427.688 C 81.75 421.626 85.5 413.251 85.5 404 C 85.5 394.75 81.75 386.374 75.688 380.312 C 69.626 374.25 61.251 370.5 52 370.5 Z M 52 282.5 C 42.75 282.5 34.373999999999995 286.25 28.312 292.312 C 22.25 298.374 18.5 306.749 18.5 316 C 18.5 325.25 22.25 333.626 28.311999999999998 339.688 C 34.374 345.75 42.749 349.5 52 349.5 C 61.25 349.5 69.626 345.75 75.688 339.688 C 81.75 333.626 85.5 325.251 85.5 316 C 85.5 306.75 81.75 298.374 75.688 292.312 C 69.626 286.25 61.251 282.5 52 282.5 Z M 140 282.5 C 130.75 282.5 122.374 286.25 116.312 292.312 C 110.25 298.374 106.5 306.749 106.5 316 C 106.5 325.25 110.25 333.626 116.312 339.688 C 122.374 345.75 130.749 349.5 140 349.5 C 149.25 349.5 157.626 345.75 163.688 339.688 C 169.75 333.626 173.5 325.251 173.5 316 C 173.5 306.75 169.75 298.374 163.688 292.312 C 157.62599999999998 286.25 149.25099999999998 282.5 140 282.5 Z M 228 282.5 C 218.75 282.5 210.374 286.25 204.312 292.312 C 198.25 298.374 194.5 306.749 194.5 316 C 194.5 325.25 198.25 333.626 204.312 339.688 C 210.37400000000002 345.75 218.74900000000002 349.5 228 349.5 C 237.25 349.5 245.626 345.75 251.688 339.688 C 257.75 333.626 261.5 325.251 261.5 316 C 261.5 306.75 257.75 298.374 251.688 292.312 C 245.62599999999998 286.25 237.25099999999998 282.5 228 282.5 Z M 316 282.5 C 306.75 282.5 298.374 286.25 292.312 292.312 C 286.25 298.374 282.5 306.749 282.5 316 C 282.5 325.25 286.25 333.626 292.312 339.688 C 298.374 345.75 306.749 349.5 316 349.5 C 325.25 349.5 333.626 345.75 339.688 339.688 C 345.75 333.626 349.5 325.251 349.5 316 C 349.5 306.75 345.75 298.374 339.688 292.312 C 333.626 286.25 325.251 282.5 316 282.5 Z M 404 282.5 C 394.75 282.5 386.374 286.25 380.312 292.312 C 374.25 298.374 370.5 306.749 370.5 316 C 370.5 325.25 374.25 333.626 380.312 339.688 C 386.374 345.75 394.749 349.5 404 349.5 C 413.25 349.5 421.626 345.75 427.688 339.688 C 433.75 333.626 437.5 325.251 437.5 316 C 437.5 306.75 433.75 298.374 427.688 292.312 C 421.626 286.25 413.251 282.5 404 282.5 Z M 492 282.5 C 482.75 282.5 474.374 286.25 468.312 292.312 C 462.25 298.374 458.5 306.749 458.5 316 C 458.5 325.25 462.25 333.626 468.312 339.688 C 474.374 345.75 482.749 349.5 492 349.5 C 501.25 349.5 509.626 345.75 515.688 339.688 C 521.75 333.626 525.5 325.251 525.5 316 C 525.5 306.75 521.75 298.374 515.688 292.312 C 509.626 286.25 501.251 282.5 492 282.5 Z M 580 282.5 C 570.75 282.5 562.374 286.25 556.312 292.312 C 550.25 298.374 546.5 306.749 546.5 316 C 546.5 325.25 550.25 333.626 556.312 339.688 C 562.374 345.75 570.749 349.5 580 349.5 C 589.25 349.5 597.626 345.75 603.688 339.688 C 609.75 333.626 613.5 325.251 613.5 316 C 613.5 306.75 609.75 298.374 603.688 292.312 C 597.626 286.25 589.251 282.5 580 282.5 Z M 140 194.5 C 130.75 194.5 122.374 198.25 116.312 204.312 C 110.25 210.37400000000002 106.5 218.74900000000002 106.5 228 C 106.5 237.25 110.25 245.626 116.312 251.688 C 122.374 257.75 130.749 261.5 140 261.5 C 149.25 261.5 157.626 257.75 163.688 251.688 C 169.75 245.62599999999998 173.5 237.25099999999998 173.5 228 C 173.5 218.75 169.75 210.374 163.688 204.312 C 157.62599999999998 198.25 149.25099999999998 194.5 140 194.5 Z M 228 194.5 C 218.75 194.5 210.374 198.25 204.312 204.312 C 198.25 210.37400000000002 194.5 218.74900000000002 194.5 228 C 194.5 237.25 198.25 245.626 204.312 251.688 C 210.37400000000002 257.75 218.74900000000002 261.5 228 261.5 C 237.25 261.5 245.626 257.75 251.688 251.688 C 257.75 245.62599999999998 261.5 237.25099999999998 261.5 228 C 261.5 218.75 257.75 210.374 251.688 204.312 C 245.62599999999998 198.25 237.25099999999998 194.5 228 194.5 Z M 316 194.5 C 306.75 194.5 298.374 198.25 292.312 204.312 C 286.25 210.37400000000002 282.5 218.74900000000002 282.5 228 C 282.5 237.25 286.25 245.626 292.312 251.688 C 298.374 257.75 306.749 261.5 316 261.5 C 325.25 261.5 333.626 257.75 339.688 251.688 C 345.75 245.62599999999998 349.5 237.25099999999998 349.5 228 C 349.5 218.75 345.75 210.374 339.688 204.312 C 333.626 198.25 325.251 194.5 316 194.5 Z M 404 194.5 C 394.75 194.5 386.374 198.25 380.312 204.312 C 374.25 210.37400000000002 370.5 218.74900000000002 370.5 228 C 370.5 237.25 374.25 245.626 380.312 251.688 C 386.374 257.75 394.749 261.5 404 261.5 C 413.25 261.5 421.626 257.75 427.688 251.688 C 433.75 245.62599999999998 437.5 237.25099999999998 437.5 228 C 437.5 218.75 433.75 210.374 427.688 204.312 C 421.626 198.25 413.251 194.5 404 194.5 Z M 492 194.5 C 482.75 194.5 474.374 198.25 468.312 204.312 C 462.25 210.37400000000002 458.5 218.74900000000002 458.5 228 C 458.5 237.25 462.25 245.626 468.312 251.688 C 474.374 257.75 482.749 261.5 492 261.5 C 501.25 261.5 509.626 257.75 515.688 251.688 C 521.75 245.62599999999998 525.5 237.25099999999998 525.5 228 C 525.5 218.75 521.75 210.374 515.688 204.312 C 509.626 198.25 501.251 194.5 492 194.5 Z M 580 194.5 C 570.75 194.5 562.374 198.25 556.312 204.312 C 550.25 210.37400000000002 546.5 218.74900000000002 546.5 228 C 546.5 237.25 550.25 245.626 556.312 251.688 C 562.374 257.75 570.749 261.5 580 261.5 C 589.25 261.5 597.626 257.75 603.688 251.688 C 609.75 245.62599999999998 613.5 237.25099999999998 613.5 228 C 613.5 218.75 609.75 210.374 603.688 204.312 C 597.626 198.25 589.251 194.5 580 194.5 Z M 52 194.5 C 42.75 194.5 34.373999999999995 198.25 28.312 204.312 C 22.25 210.374 18.5 218.749 18.5 228 C 18.5 237.25 22.25 245.626 28.311999999999998 251.688 C 34.374 257.75 42.749 261.5 52 261.5 C 61.25 261.5 69.626 257.75 75.688 251.688 C 81.75 245.626 85.5 237.251 85.5 228 C 85.5 218.75 81.75 210.374 75.688 204.312 C 69.626 198.25 61.251 194.5 52 194.5 Z M 580 106.5 C 570.75 106.5 562.374 110.25 556.312 116.312 C 550.25 122.374 546.5 130.749 546.5 140 C 546.5 149.25 550.25 157.626 556.312 163.688 C 562.374 169.75 570.749 173.5 580 173.5 C 589.25 173.5 597.626 169.75 603.688 163.688 C 609.75 157.62599999999998 613.5 149.25099999999998 613.5 140 C 613.5 130.75 609.75 122.374 603.688 116.312 C 597.626 110.25 589.251 106.5 580 106.5 Z M 492 106.5 C 482.75 106.5 474.374 110.25 468.312 116.312 C 462.25 122.374 458.5 130.749 458.5 140 C 458.5 149.25 462.25 157.626 468.312 163.688 C 474.374 169.75 482.749 173.5 492 173.5 C 501.25 173.5 509.626 169.75 515.688 163.688 C 521.75 157.62599999999998 525.5 149.25099999999998 525.5 140 C 525.5 130.75 521.75 122.374 515.688 116.312 C 509.626 110.25 501.251 106.5 492 106.5 Z M 404 106.5 C 394.75 106.5 386.374 110.25 380.312 116.312 C 374.25 122.374 370.5 130.749 370.5 140 C 370.5 149.25 374.25 157.626 380.312 163.688 C 386.374 169.75 394.749 173.5 404 173.5 C 413.25 173.5 421.626 169.75 427.688 163.688 C 433.75 157.62599999999998 437.5 149.25099999999998 437.5 140 C 437.5 130.75 433.75 122.374 427.688 116.312 C 421.626 110.25 413.251 106.5 404 106.5 Z M 316 106.5 C 306.75 106.5 298.374 110.25 292.312 116.312 C 286.25 122.374 282.5 130.749 282.5 140 C 282.5 149.25 286.25 157.626 292.312 163.688 C 298.374 169.75 306.749 173.5 316 173.5 C 325.25 173.5 333.626 169.75 339.688 163.688 C 345.75 157.62599999999998 349.5 149.25099999999998 349.5 140 C 349.5 130.75 345.75 122.374 339.688 116.312 C 333.626 110.25 325.251 106.5 316 106.5 Z M 228 106.5 C 218.75 106.5 210.374 110.25 204.312 116.312 C 198.25 122.374 194.5 130.749 194.5 140 C 194.5 149.25 198.25 157.626 204.312 163.688 C 210.37400000000002 169.75 218.74900000000002 173.5 228 173.5 C 237.25 173.5 245.626 169.75 251.688 163.688 C 257.75 157.62599999999998 261.5 149.25099999999998 261.5 140 C 261.5 130.75 257.75 122.374 251.688 116.312 C 245.62599999999998 110.25 237.25099999999998 106.5 228 106.5 Z M 140 106.5 C 130.75 106.5 122.374 110.25 116.312 116.312 C 110.25 122.374 106.5 130.749 106.5 140 C 106.5 149.25 110.25 157.626 116.312 163.688 C 122.374 169.75 130.749 173.5 140 173.5 C 149.25 173.5 157.626 169.75 163.688 163.688 C 169.75 157.62599999999998 173.5 149.25099999999998 173.5 140 C 173.5 130.75 169.75 122.374 163.688 116.312 C 157.62599999999998 110.25 149.25099999999998 106.5 140 106.5 Z M 52 106.5 C 42.75 106.5 34.373999999999995 110.25 28.312 116.312 C 22.25 122.374 18.5 130.749 18.5 140 C 18.5 149.25 22.25 157.626 28.311999999999998 163.688 C 34.374 169.75 42.749 173.5 52 173.5 C 61.25 173.5 69.626 169.75 75.688 163.688 C 81.75 157.626 85.5 149.251 85.5 140 C 85.5 130.75 81.75 122.374 75.688 116.312 C 69.626 110.25 61.251 106.5 52 106.5 Z M 580 18.5 C 570.75 18.5 562.374 22.25 556.312 28.311999999999998 C 550.25 34.374 546.5 42.749 546.5 52 C 546.5 61.25 550.25 69.626 556.312 75.688 C 562.374 81.75 570.749 85.5 580 85.5 C 589.25 85.5 597.626 81.75 603.688 75.688 C 609.75 69.626 613.5 61.251 613.5 52 C 613.5 42.75 609.75 34.373999999999995 603.688 28.312 C 597.626 22.25 589.251 18.5 580 18.5 Z M 492 18.5 C 482.75 18.5 474.374 22.25 468.312 28.311999999999998 C 462.25 34.374 458.5 42.749 458.5 52 C 458.5 61.25 462.25 69.626 468.312 75.688 C 474.374 81.75 482.749 85.5 492 85.5 C 501.25 85.5 509.626 81.75 515.688 75.688 C 521.75 69.626 525.5 61.251 525.5 52 C 525.5 42.75 521.75 34.373999999999995 515.688 28.312 C 509.626 22.25 501.251 18.5 492 18.5 Z M 404 18.5 C 394.75 18.5 386.374 22.25 380.312 28.311999999999998 C 374.25 34.374 370.5 42.749 370.5 52 C 370.5 61.25 374.25 69.626 380.312 75.688 C 386.374 81.75 394.749 85.5 404 85.5 C 413.25 85.5 421.626 81.75 427.688 75.688 C 433.75 69.626 437.5 61.251 437.5 52 C 437.5 42.75 433.75 34.373999999999995 427.688 28.312 C 421.626 22.25 413.251 18.5 404 18.5 Z M 316 18.5 C 306.75 18.5 298.374 22.25 292.312 28.311999999999998 C 286.25 34.374 282.5 42.749 282.5 52 C 282.5 61.25 286.25 69.626 292.312 75.688 C 298.374 81.75 306.749 85.5 316 85.5 C 325.25 85.5 333.626 81.75 339.688 75.688 C 345.75 69.626 349.5 61.251 349.5 52 C 349.5 42.75 345.75 34.373999999999995 339.688 28.312 C 333.626 22.25 325.251 18.5 316 18.5 Z M 228 18.5 C 218.75 18.5 210.374 22.25 204.312 28.311999999999998 C 198.25 34.374 194.5 42.749 194.5 52 C 194.5 61.25 198.25 69.626 204.312 75.688 C 210.374 81.75 218.749 85.5 228 85.5 C 237.25 85.5 245.626 81.75 251.688 75.688 C 257.75 69.626 261.5 61.251 261.5 52 C 261.5 42.75 257.75 34.373999999999995 251.688 28.312 C 245.626 22.25 237.251 18.5 228 18.5 Z M 140 18.5 C 130.75 18.5 122.374 22.25 116.312 28.311999999999998 C 110.25 34.374 106.5 42.749 106.5 52 C 106.5 61.25 110.25 69.626 116.312 75.688 C 122.374 81.75 130.749 85.5 140 85.5 C 149.25 85.5 157.626 81.75 163.688 75.688 C 169.75 69.626 173.5 61.251 173.5 52 C 173.5 42.75 169.75 34.373999999999995 163.688 28.312 C 157.626 22.25 149.251 18.5 140 18.5 Z M 52 18.5 C 42.75 18.5 34.373999999999995 22.25 28.312 28.311999999999998 C 22.25 34.374 18.5 42.749 18.5 52 C 18.5 61.25 22.25 69.626 28.311999999999998 75.688 C 34.374 81.75 42.749 85.5 52 85.5 C 61.25 85.5 69.626 81.75 75.688 75.688 C 81.75 69.626 85.5 61.251 85.5 52 C 85.5 42.75 81.75 34.373999999999995 75.688 28.312 C 69.626 22.25 61.251 18.5 52 18.5 Z" stroke-linecap="round" />
</g>
</svg>